<svg width="20" height="18" viewBox="0 0 20 18" fill="none" xmlns="http://www.w3.org/2000/svg">
<path d="M20 7.00006V16.5001C20 16.5001 20 17.0001 19.5 17.5001C19 18.0001 18.5 18.0001 18.5 18.0001H1.49998C1.49998 18.0001 0.999985 18.0001 0.499985 17.5001C-1.62125e-05 17.0001 -1.52588e-05 16.5001 -1.52588e-05 16.5001V7.00006H20ZM20 5.00006H-1.52588e-05V1.50006C-1.52588e-05 1.50006 -1.52588e-05 1.00006 0.499985 0.500061C0.999985 6.10054e-05 1.49998 6.10352e-05 1.49998 6.10352e-05H18.5C18.5 6.10352e-05 19 6.10352e-05 19.5 0.500061C20 1.00006 20 1.50006 20 1.50006L20 5.00006ZM13 13.0001V15.0001H17V13.0001H13Z" fill="white"/>
</svg>
