<svg width="20" height="20" viewBox="0 0 20 20" fill="none" xmlns="http://www.w3.org/2000/svg">
<path d="M0 9.34258C0 7.67082 0.835506 6.10966 2.2265 5.18233L8.3359 1.1094C9.3436 0.437603 10.6564 0.437602 11.6641 1.1094L17.7735 5.18233C19.1645 6.10966 20 7.67082 20 9.34259V17C20 18.6569 18.6569 20 17 20H13.1111C12.6202 20 12.2222 19.602 12.2222 19.1111V15.2778C12.2222 14.2039 11.3517 13.3333 10.2778 13.3333C9.20389 13.3333 8.33333 14.2039 8.33333 15.2778V19.1111C8.33333 19.602 7.93536 20 7.44444 20H3C1.34315 20 0 18.6569 0 17V9.34258Z" fill="#6788E2"/>
</svg>
