<svg width="34" height="34" viewBox="0 0 34 34" fill="none" xmlns="http://www.w3.org/2000/svg">
<circle cx="17" cy="17" r="17" fill="white" fill-opacity="0.2"/>
<circle cx="17" cy="17" r="16.5" stroke="white" stroke-opacity="0.8"/>
<path d="M10.0819 16.7113L9.3712 16.9509L9.37142 16.9516L10.0819 16.7113ZM12.5 10.7259L12.2805 10.0088L12.2805 10.0088L12.5 10.7259ZM17.001 12.3828L16.5649 12.993C16.8287 13.1815 17.1837 13.1792 17.445 12.9873L17.001 12.3828ZM21.4999 10.726L21.7194 10.0088L21.7194 10.0088L21.4999 10.726ZM23.9194 16.7113L23.2086 16.4719L23.2074 16.4756L23.9194 16.7113ZM17.001 22.9999L16.7039 23.6886C16.8945 23.7708 17.1106 23.7704 17.3008 23.6874L17.001 22.9999ZM10.7926 16.4717C10.4265 15.3861 10.3874 14.2665 10.696 13.3622C10.9951 12.4857 11.6281 11.7771 12.7194 11.4431L12.2805 10.0088C10.7059 10.4906 9.72315 11.5686 9.27639 12.8777C8.83911 14.1591 8.92389 15.6243 9.3712 16.9509L10.7926 16.4717ZM12.7194 11.4431C13.203 11.2952 13.8251 11.4092 14.5602 11.7502C15.2802 12.0842 15.9775 12.5732 16.5649 12.993L17.4371 11.7726C16.8586 11.3592 16.0555 10.7904 15.1914 10.3895C14.3425 9.99566 13.2969 9.69781 12.2805 10.0088L12.7194 11.4431ZM17.445 12.9873C17.9927 12.585 18.6908 12.0953 19.4168 11.759C20.1626 11.4135 20.7987 11.2957 21.2805 11.4431L21.7194 10.0088C20.7012 9.69722 19.6392 10.0028 18.7863 10.398C17.9136 10.8023 17.1122 11.3705 16.557 11.7783L17.445 12.9873ZM21.2805 11.4431C22.3718 11.7771 23.005 12.4857 23.3043 13.3624C23.6132 14.2667 23.5743 15.3863 23.2086 16.4719L24.6301 16.9507C25.077 15.6241 25.1614 14.1589 24.7239 12.8776C24.2768 11.5686 23.294 10.4906 21.7194 10.0088L21.2805 11.4431ZM23.2074 16.4756C22.6542 18.1465 21.098 19.6008 19.5569 20.674C18.8023 21.1995 18.0835 21.6115 17.5532 21.8921C17.2886 22.0321 17.0723 22.1387 16.9236 22.2096C16.8493 22.245 16.7919 22.2715 16.754 22.2887C16.7351 22.2974 16.721 22.3037 16.7121 22.3076C16.7076 22.3096 16.7045 22.311 16.7027 22.3118C16.7017 22.3122 16.7012 22.3125 16.7009 22.3126C16.7008 22.3127 16.7008 22.3127 16.7008 22.3126C16.7008 22.3126 16.7009 22.3126 16.7009 22.3126C16.7011 22.3125 16.7012 22.3125 17.001 22.9999C17.3008 23.6874 17.301 23.6873 17.3012 23.6872C17.3013 23.6872 17.3015 23.6871 17.3017 23.687C17.3021 23.6868 17.3026 23.6866 17.3032 23.6864C17.3043 23.6859 17.3058 23.6852 17.3076 23.6845C17.3112 23.6829 17.3161 23.6807 17.3224 23.6779C17.335 23.6723 17.3528 23.6643 17.3755 23.6539C17.4211 23.6332 17.4864 23.603 17.5691 23.5635C17.7345 23.4847 17.9697 23.3688 18.2547 23.218C18.8239 22.9168 19.5973 22.4737 20.4141 21.9049C22.0156 20.7897 23.9187 19.0997 24.6314 16.947L23.2074 16.4756ZM17.001 22.9999C17.2981 22.3113 17.2982 22.3114 17.2984 22.3114C17.2984 22.3114 17.2985 22.3115 17.2985 22.3115C17.2986 22.3115 17.2985 22.3115 17.2984 22.3114C17.2982 22.3113 17.2976 22.3111 17.2967 22.3107C17.2949 22.3099 17.2918 22.3085 17.2874 22.3066C17.2786 22.3027 17.2647 22.2966 17.2459 22.2881C17.2084 22.2712 17.1516 22.2452 17.0779 22.2103C16.9304 22.1406 16.7158 22.0357 16.4529 21.8975C15.9263 21.6206 15.2118 21.2128 14.4601 20.6903C12.9269 19.6247 11.3666 18.1687 10.7923 16.471L9.37142 16.9516C10.1055 19.1221 12.0047 20.8104 13.604 21.922C14.4186 22.4882 15.1885 22.9273 15.7548 23.2251C16.0385 23.3743 16.2723 23.4887 16.4368 23.5664C16.5191 23.6053 16.5841 23.6351 16.6294 23.6555C16.6521 23.6658 16.6698 23.6736 16.6823 23.6792C16.6886 23.6819 16.6935 23.6841 16.6972 23.6857C16.699 23.6864 16.7004 23.6871 16.7016 23.6876C16.7021 23.6878 16.7026 23.688 16.703 23.6882C16.7032 23.6883 16.7034 23.6884 16.7035 23.6884C16.7037 23.6885 16.7039 23.6886 17.001 22.9999Z" fill="white"/>
</svg>
